<svg xmlns="http://www.w3.org/2000/svg" data-name="Layer 1" viewBox="0 0 512 512"><path fill="#fed402" d="M139.82134,320.49092a15.97014,15.97014,0,0,0,7.98634,17.40424,107.09375,107.09375,0,0,0,103.38474-.00223,15.9701,15.9701,0,0,0,7.98609-17.40473,61.18842,61.18842,0,0,0-59.67819-47.71237h-.00013A61.18864,61.18864,0,0,0,139.82134,320.49092Z"/><path fill="#fac600" d="M251.19238,337.89294a15.97,15.97,0,0,0,7.98609-17.40478,61.18826,61.18826,0,0,0-59.67823-47.71228h0c-.61438,0-1.22338.022-1.83325.04a71.70848,71.70848,0,0,0-26.58838,41.30639,18.71123,18.71123,0,0,0,9.35706,20.39136,124.48547,124.48547,0,0,0,42.00586,14.20288A106.284,106.284,0,0,0,251.19238,337.89294Z"/><path fill="#fed2a4" d="M199.50027,281.2625h-.00007a32.6512,32.6512,0,0,1-32.6512-32.65121V233.12842l15-24.35487c0-10.57145-6.43015-4.14131,4.1413-4.14131h27.01987c10.57145,0,19.1413-6.43014,19.1413,4.14131v39.83774A32.6512,32.6512,0,0,1,199.50027,281.2625Z"/><path fill="#ffbd86" d="M181.10986 203.89307c-.92651-2.14246-2.14257-.92652 0 0zM216.27515 204.44287a8.42394 8.42394 0 0 1 .87634 4.33069v39.83777A32.65681 32.65681 0 0 1 192.00024 280.387a32.71756 32.71756 0 0 0 7.5.87549h0a32.65123 32.65123 0 0 0 32.65125-32.65112V208.77356C232.15149 199.3158 225.29028 203.46338 216.27515 204.44287z"/><path fill="#554e56" d="M213.01025,189.6322h-27.02A19.14134,19.14134,0,0,0,166.849,208.77356v24.35486l27.66919-9.11548a34.7775,34.7775,0,0,1,30.29993,4.17969l7.33337,4.93579V208.77356A19.14143,19.14143,0,0,0,213.01025,189.6322Z"/><path fill="#433f43" d="M213.01025,189.6322h-15a19.14143,19.14143,0,0,1,19.14124,19.14136V224.325a34.74068,34.74068,0,0,1,7.66663,3.86768l7.33337,4.93579V208.77356A19.14143,19.14143,0,0,0,213.01025,189.6322Z"/><path fill="#09a76d" d="M252.82134,320.49092a15.97014,15.97014,0,0,0,7.98634,17.40424,107.09375,107.09375,0,0,0,103.38474-.00223,15.9701,15.9701,0,0,0,7.98609-17.40473,61.18842,61.18842,0,0,0-59.67819-47.71237h-.00013A61.18864,61.18864,0,0,0,252.82134,320.49092Z"/><path fill="#02905d" d="M372.17847,320.48816a61.18826,61.18826,0,0,0-59.67823-47.71228h0a61.74021,61.74021,0,0,0-7.49987.465,61.21261,61.21261,0,0,1,52.1781,47.24732,15.97,15.97,0,0,1-7.98609,17.40478,106.3284,106.3284,0,0,1-44.19629,13.0365c2.47815.17188,4.97766.26612,7.49952.26612a106.48256,106.48256,0,0,0,51.69677-13.30262A15.97,15.97,0,0,0,372.17847,320.48816Z"/><path fill="#fed2a4" d="M312.50027,281.2625h-.00007a32.6512,32.6512,0,0,1-32.6512-32.65121V208.77355c0-10.57145,8.56985-4.14131,19.1413-4.14131h27.01987c10.57145,0,19.1413-6.43014,19.1413,4.14131v39.83774A32.6512,32.6512,0,0,1,312.50027,281.2625Z"/><path fill="#ffbd86" d="M329.27515 204.44287a8.42394 8.42394 0 0 1 .87634 4.33069v39.83777A32.65681 32.65681 0 0 1 305.00024 280.387a32.71756 32.71756 0 0 0 7.5.87549h0a32.65123 32.65123 0 0 0 32.65125-32.65112V208.77356C345.15149 199.3158 338.29028 203.46338 329.27515 204.44287zM283.99023 204.6322h15c-8.57177 0-15.82666-4.226-18.26489-.18933A30.18669 30.18669 0 0 0 283.99023 204.6322z"/><path fill="#554e56" d="M326.01025,189.6322h-27.02A19.14134,19.14134,0,0,0,279.849,208.77356v24.35486l27.66919-9.11548a34.7775,34.7775,0,0,1,30.29993,4.17969l7.33337,4.93579V208.77356A19.14143,19.14143,0,0,0,326.01025,189.6322Z"/><path fill="#433f43" d="M326.01025,189.6322h-15a19.14143,19.14143,0,0,1,19.14124,19.14136V224.325a34.74068,34.74068,0,0,1,7.66663,3.86768l7.33337,4.93579V208.77356A19.14143,19.14143,0,0,0,326.01025,189.6322Z"/><path fill="#fd4755" d="M186.07866,314.12239a18.71112,18.71112,0,0,0,9.357,20.39134,125.4743,125.4743,0,0,0,121.12872-.00261,18.71108,18.71108,0,0,0,9.35676-20.39192,71.69022,71.69022,0,0,0-69.92079-55.90127h-.00016A71.69048,71.69048,0,0,0,186.07866,314.12239Z"/><path fill="#fb2b3a" d="M325.92114,314.11914a71.69018,71.69018,0,0,0-69.92077-55.90124h-.00013a71.90933,71.90933,0,0,0-14.99987,1.58239,71.75757,71.75757,0,0,1,54.92077,54.31885,18.711,18.711,0,0,1-9.35669,20.392,124.51445,124.51445,0,0,1-45.56872,14.68323,126.47182,126.47182,0,0,0,14.99914.90258,124.75734,124.75734,0,0,0,60.56958-15.58581A18.711,18.711,0,0,0,325.92114,314.11914Z"/><path fill="#fed2a4" d="M256.00031,268.16118h-.00007A38.25515,38.25515,0,0,1,217.74509,229.906V211.76587l15-28.535c0-12.38584-4.9593-7.42654,7.42654-7.42654h31.65729c12.38584,0,7.42655-4.9593,7.42655,7.42654l15,28.535V229.906A38.25516,38.25516,0,0,1,256.00031,268.16118Z"/><path fill="#ffbd86" d="M240.17163 175.80432c-8.25391 0-8.80347-2.19592-8.25268 0zM279.25549 183.231c0-12.386 4.95935-7.42664-7.42663-7.42664h-6.74719a27.94026 27.94026 0 0 0-.82618 7.42664l15 13.53491V229.906a38.26437 38.26437 0 0 1-30.75525 37.51538 38.42417 38.42417 0 0 0 7.5.73974h0A38.2552 38.2552 0 0 0 294.25549 229.906V211.76587z"/><path fill="#554e56" d="M271.82886,160.80432H240.17163A22.42649,22.42649,0,0,0,217.74512,183.231v28.53491l32.418-10.67993a40.74563,40.74563,0,0,1,35.50024,4.897l8.59216,5.783V183.231A22.42651,22.42651,0,0,0,271.82886,160.80432Z"/><path fill="#433f43" d="M271.82886,160.80432h-15A22.42651,22.42651,0,0,1,279.25549,183.231v19.23779a40.72009,40.72009,0,0,1,6.40784,3.51416l8.59216,5.783V183.231A22.42651,22.42651,0,0,0,271.82886,160.80432Z"/><path d="M256,75.5C156.47217,75.5,75.5,156.47217,75.5,256c0,99.52832,80.97217,180.5,180.5,180.5S436.5,355.52832,436.5,256C436.5,156.47217,355.52783,75.5,256,75.5Zm0,346c-91.25684,0-165.5-74.24316-165.5-165.5S164.74316,90.5,256,90.5,421.5,164.74316,421.5,256,347.25684,421.5,256,421.5Zm88.29761-148.418a39.93646,39.93646,0,0,0,8.35229-24.47217V208.77a26.67027,26.67027,0,0,0-26.64013-26.64014H301.72742A29.95786,29.95786,0,0,0,271.8291,153.3042H240.17139a29.95785,29.95785,0,0,0-29.89832,28.82568H185.99023A26.67027,26.67027,0,0,0,159.3501,208.77v24.4519c.00024.01587-.00025.03174,0,.04761v15.34033a39.93681,39.93681,0,0,0,8.353,24.473A68.704,68.704,0,0,0,132.501,318.85156a23.62627,23.62627,0,0,0,11.68017,25.61231,114.5296,114.5296,0,0,0,84.86157,10.356,132.06825,132.06825,0,0,0,53.9021.00122,114.52252,114.52252,0,0,0,84.87549-10.36889,23.58972,23.58972,0,0,0,11.67725-25.60645A68.86145,68.86145,0,0,0,344.29761,273.082Zm-42.54224-75.95215h24.2544A11.65324,11.65324,0,0,1,337.6499,208.77v10.64185a42.59679,42.59679,0,0,0-32.47754-2.52515l-3.417,1.1261Zm-.18237,36.73658,8.29321-2.73316a27.45846,27.45846,0,0,1,23.76221,3.27588l4.02148,2.7102v11.49048a25.15242,25.15242,0,0,1-47.44653,11.643A45.56658,45.56658,0,0,0,301.573,233.86646ZM225.24512,183.231a14.94347,14.94347,0,0,1,14.92627-14.92676H271.8291A14.94347,14.94347,0,0,1,286.75537,183.231v14.62695a47.87556,47.87556,0,0,0-38.939-3.89551l-22.57129,7.43579Zm0,41.1549c-.001-.05078.002-.10192,0-.15271v-7.04174l27.26465-8.98194a33.027,33.027,0,0,1,28.9663,3.99561l5.2793,3.55322v14.148a30.78946,30.78946,0,0,1-30.75488,30.75488H256a30.78945,30.78945,0,0,1-30.75488-30.75488ZM174.3501,208.77a11.65324,11.65324,0,0,1,11.64013-11.64014h24.25489v14.72681c.00024.01587-.00025.03149,0,.04736v3.15259a42.38537,42.38537,0,0,0-18.07276,1.83008L174.3501,222.761Zm0,29.78467,22.51611-7.42139a27.37406,27.37406,0,0,1,13.38672-.91675,45.5567,45.5567,0,0,0,11.54395,30.03577,25.15241,25.15241,0,0,1-47.44678-11.64246Zm-22.90088,92.78808a8.53978,8.53978,0,0,1-4.312-9.207,53.94248,53.94248,0,0,1,18.6123-29.917,53.38534,53.38534,0,0,1,14.51441-8.37744,39.93347,39.93347,0,0,0,8.93945,3.57251,79.02,79.02,0,0,0-10.44067,25.06177,26.335,26.335,0,0,0,13.04638,28.59668c1.62952.90148,3.28369,1.75415,4.94873,2.58447A99.53152,99.53152,0,0,1,151.44922,331.34277Zm104.541,11.25684a117.85617,117.85617,0,0,1-56.92138-14.65332A11.26074,11.26074,0,0,1,193.397,315.7666a64.13233,64.13233,0,0,1,14.01978-27.78467,39.92128,39.92128,0,0,0,26.2113-18.18554,45.6051,45.6051,0,0,0,44.74414.00049,39.92173,39.92173,0,0,0,26.202,18.18334,64.029,64.029,0,0,1,14.02832,27.78443,11.26169,11.26169,0,0,1-5.67334,12.18262A117.89143,117.89143,0,0,1,255.99023,342.59961Zm104.56739-11.27149a99.42666,99.42666,0,0,1-45.31543,12.3285c1.6643-.83,3.318-1.68225,4.94677-2.58338a26.33616,26.33616,0,0,0,13.04834-28.59863,78.91812,78.91812,0,0,0-10.44274-25.06018,39.935,39.935,0,0,0,8.952-3.57922,53.79829,53.79829,0,0,1,33.11524,38.29663A8.51383,8.51383,0,0,1,360.55762,331.32812ZM504.5,248.5h-8.12744A240.46159,240.46159,0,0,0,263.5,15.62756V7.5a7.5,7.5,0,0,0-15,0v8.12756A240.46137,240.46137,0,0,0,15.62756,248.5H7.5a7.5,7.5,0,0,0,0,15h8.12756A240.46066,240.46066,0,0,0,248.5,496.37256V504.5a7.5,7.5,0,0,0,15,0v-8.12744A240.46088,240.46088,0,0,0,496.37256,263.5H504.5a7.5,7.5,0,0,0,0-15Zm-33.64209,15h10.50537A225.45639,225.45639,0,0,1,263.5,481.36328V470.85742a7.5,7.5,0,0,0-15,0v10.50586A225.45639,225.45639,0,0,1,30.63672,263.5H41.14209a7.5,7.5,0,0,0,0-15H30.63672A225.45545,225.45545,0,0,1,248.5,30.63672V41.14209a7.5,7.5,0,0,0,15,0V30.63672A225.45545,225.45545,0,0,1,481.36328,248.5H470.85791a7.5,7.5,0,1,0,0,15Z"/></svg>