<svg xmlns="http://www.w3.org/2000/svg" width="64" height="64" data-name="Layer 1" viewBox="0 0 64 64"><path fill="#3b3c3d" d="M58.4942 48a1.0228 1.0228 0 0 0-1 1v.87l-9-1V45a1 1 0 0 0-2 0v3h-21a.99.99 0 0 0-1 1h-4a1.0228 1.0228 0 0 0-1 1v.5h-5a1.0228 1.0228 0 0 0-1 1V52h-9a1.0228 1.0228 0 0 0-1 1 .99.99 0 0 0 1 1h9v.5a.99.99 0 0 0 1 1h5V56a.99.99 0 0 0 1 1h4a.99.99 0 0 0 1 1h21v3a1 1 0 0 0 2 0V57.19l9-1.07V57a1 1 0 0 0 2 0V49A1.0228 1.0228 0 0 0 58.4942 48zm-34 7h-3V51h3zm22 1h-3V53a1 1 0 0 0-2 0v3h-2V55a1 1 0 0 0-2 0v1h-2V53a1 1 0 0 0-2 0v3h-2V55a1 1 0 0 0-2 0v1h-3V50h20zM40.5642 29.44a2.9387 2.9387 0 0 0-3.44.31l-2.81-1.63a5.336 5.336 0 0 0 .43-1.06l1.06.31h.25a.9886.9886 0 0 0 .94-.75.9189.9189 0 0 0-.68-1.18l-1.01-.32a9.3141 9.3141 0 0 0 .13-1.12h4.06a.99.99 0 0 0 1-1 1.0228 1.0228 0 0 0-1-1h-4.06a10.86 10.86 0 0 0-.13-1.13l1.01-.25a.9615.9615 0 0 0 .68-1.25.9843.9843 0 0 0-1.19-.68l-1.02.3a10.2913 10.2913 0 0 0-.47-1.05l2.81-1.63a4.2384 4.2384 0 0 0 1.19.63 3.2373 3.2373 0 0 0 .75.11 3.0489 3.0489 0 0 0 1.5-.43 2.8873 2.8873 0 0 0 1.42-1.81 3.238 3.238 0 0 0-.3-2.31 2.939 2.939 0 0 0-1.82-1.38 3.2307 3.2307 0 0 0-2.3.32 2.8423 2.8423 0 0 0-1.38 1.81 3.2216 3.2216 0 0 0-.06 1.31l-2.81 1.63a5.0372 5.0372 0 0 0-.69-.89l.75-.74a.98.98 0 0 0 0-1.44 1.009 1.009 0 0 0-1.39 0l-.74.75a7.8348 7.8348 0 0 0-.93-.68l1.62-2.82c.19 0 .38.07.56.07a2.97 2.97 0 0 0 2.57-1.5 3.0049 3.0049 0 0 0-1.07-4.13 3.0542 3.0542 0 0 0-4.12 1.13 3.0954 3.0954 0 0 0-.38 1.5 2.9791 2.9791 0 0 0 .73 1.93l-1.62 2.82a6.7019 6.7019 0 0 0-1.05-.44l.26-1a1.0072 1.0072 0 0 0-.69-1.25 1.0568 1.0568 0 0 0-1.25.69l-.25 1.05c-.38-.06-.75-.12-1.13-.18V7.81a2.9268 2.9268 0 0 0 2-2.81 3.0351 3.0351 0 0 0-3-3 3.0023 3.0023 0 0 0-3 3 2.9141 2.9141 0 0 0 2 2.81v3.25c-.37.06-.75.12-1.12.18l-.27-1.05a1.0446 1.0446 0 0 0-1.23-.69.9562.9562 0 0 0-.7 1.25l.26 1a6.4231 6.4231 0 0 0-1.06.44l-1.63-2.82a2.9008 2.9008 0 0 0 .32-3.43 2.9859 2.9859 0 0 0-4.07-1.13 3.0743 3.0743 0 0 0-1.12 4.13 3.0761 3.0761 0 0 0 2.62 1.5c.19 0 .37-.07.54-.07l1.63 2.82a7.0181 7.0181 0 0 0-.92.68l-.75-.75a1.009 1.009 0 0 0-1.39 0 .98.98 0 0 0 0 1.44l.71.74c-.21.26-.44.57-.69.89l-2.77-1.63a3.05 3.05 0 0 0-.04-1.31 2.9388 2.9388 0 0 0-1.4-1.81 2.99 2.99 0 0 0-4.1 1.06 3.1964 3.1964 0 0 0-.32 2.31 2.9538 2.9538 0 0 0 1.42 1.81 3.1213 3.1213 0 0 0 1.46.43 3.4446 3.4446 0 0 0 .81-.11 4.126 4.126 0 0 0 1.17-.63l2.77 1.63c-.13.31-.27.68-.4 1.05l-1.04-.3a1.0211 1.0211 0 0 0-1.21.68.9709.9709 0 0 0 .71 1.25l1 .25a8.6914 8.6914 0 0 0-.13 1.13h-3.24a3.0627 3.0627 0 0 0-2.82-2 3.0023 3.0023 0 0 0-3 3 2.9951 2.9951 0 0 0 5.82 1h3.24a7.6488 7.6488 0 0 0 .13 1.12l-1 .32a.93.93 0 0 0-.71 1.18.9853.9853 0 0 0 .96.75h.25l1.04-.31c.13.38.27.75.4 1.06l-2.77 1.63a3.0334 3.0334 0 0 0-1.17-.63 3.1514 3.1514 0 0 0-2.27.32 2.901 2.901 0 0 0-1.42 1.81 3.0163 3.0163 0 0 0 .32 2.25 2.9649 2.9649 0 0 0 1.81 1.44 3.2748 3.2748 0 0 0 .79.11 3.2756 3.2756 0 0 0 1.5-.43 2.9935 2.9935 0 0 0 1.4-1.81 3.0551 3.0551 0 0 0 .04-1.31l2.77-1.63c.25.32.48.63.69.88l-.71.75a.98.98 0 0 0 0 1.44 1.0577 1.0577 0 0 0 .7.3.9949.9949 0 0 0 .69-.3l.75-.75c.3.25.61.43.92.68l-1.62 2.82a3.0093 3.0093 0 0 0-3.17 1.43 3.1528 3.1528 0 0 0-.38 1.5 3.0161 3.0161 0 0 0 1.5 2.57 2.7057 2.7057 0 0 0 1.5.43 2.95 2.95 0 0 0 2.57-1.5 2.9008 2.9008 0 0 0-.32-3.43l1.63-2.82a7.421 7.421 0 0 0 1.06.44l-.26 1a.9826.9826 0 0 0 .7 1.25h.25a.9685.9685 0 0 0 .98-.75l.27-1c.37.06.75.13 1.12.18v3.2a3.0192 3.0192 0 0 0-2 2.81 2.9647 2.9647 0 0 0 3 3 2.9959 2.9959 0 0 0 3-3 3.0333 3.0333 0 0 0-2-2.81v-3.2c.38-.05.75-.12 1.13-.18l.25 1a.9793.9793 0 0 0 .99.75h.26a1.04 1.04 0 0 0 .69-1.25l-.26-1a7.8158 7.8158 0 0 0 1.05-.44l1.62 2.82a3.0182 3.0182 0 0 0-.35 3.43 3.0542 3.0542 0 0 0 2.62 1.5 2.6834 2.6834 0 0 0 1.5-.43 2.9248 2.9248 0 0 0 1.07-4.07 2.8434 2.8434 0 0 0-2.57-1.5 1.5681 1.5681 0 0 0-.56.07l-1.62-2.82c.31-.25.62-.43.93-.68l.74.75a1.0784 1.0784 0 0 0 .7.3 1.0336 1.0336 0 0 0 .69-.3.98.98 0 0 0 0-1.44l-.75-.75a4.6268 4.6268 0 0 0 .69-.88l2.81 1.63a3.2294 3.2294 0 0 0 .06 1.31 2.8931 2.8931 0 0 0 1.38 1.81 3.3819 3.3819 0 0 0 1.5.43 3.7525 3.7525 0 0 0 .8-.11 3.06 3.06 0 0 0 2.12-3.69A2.8372 2.8372 0 0 0 40.5642 29.44zm-21.06-1.4a4 4 0 1 1 4-4A3.999 3.999 0 0 1 19.5041 28.04zm8.0019.01a1 1 0 1 1 1-1A1 1 0 0 1 27.506 28.05zm-.0019-6.01a3 3 0 1 1 3-3A2.996 2.996 0 0 1 27.5041 22.04z"/><path fill="#3b3c3d" d="M47.5058,41.4641a.99.99,0,0,1-.646-.2364,37.7344,37.7344,0,0,1-4.52-4.5361,1,1,0,1,1,1.5318-1.2861,35.7431,35.7431,0,0,0,3.6357,3.7373C55.47,32.15,59.5058,23.7,59.5058,14.02v-2.331L47.5053,6.15,41.9282,8.7238A1,1,0,1,1,41.09,6.9084l5.9966-2.7676a.9986.9986,0,0,1,.8384,0l13,6a.9993.9993,0,0,1,.581.9072V14.02c0,10.5557-4.4931,19.71-13.3545,27.208A.9938.9938,0,0,1,47.5058,41.4641Z"/><path fill="#3b3c3d" d="M47.104,27.506a1.0009,1.0009,0,0,1-.7071-.2919l-3-3a1,1,0,0,1,1.4146-1.4151l2.2363,2.2373,5.2974-6.1806a1,1,0,1,1,1.5181,1.3017l-6,7a1.0019,1.0019,0,0,1-.7208.3486Z"/></svg>